<?xml version="1.0" standalone="no"?>
<!DOCTYPE svg PUBLIC "-//W3C//DTD SVG 20010904//EN"
 "http://www.w3.org/TR/2001/REC-SVG-20010904/DTD/svg10.dtd">
<svg version="1.0" xmlns="http://www.w3.org/2000/svg"
 width="155.000000pt" height="49.000000pt" viewBox="0 0 155.000000 49.000000"
 preserveAspectRatio="xMidYMid meet">

<g transform="translate(0.000000,49.000000) scale(0.100000,-0.100000)"
fill="#000000" stroke="none">
<path d="M771 301 c2 -71 -1 -104 -11 -115 -15 -19 -8 -31 15 -23 12 5 15 25
15 97 0 65 3 90 13 90 12 0 44 -58 39 -72 -1 -5 2 -8 8 -8 6 0 10 -7 10 -15 0
-8 5 -15 10 -15 6 0 9 -3 8 -7 -6 -19 22 -73 38 -73 15 0 16 10 9 98 -7 101
-10 112 -25 112 -6 0 -7 -20 -4 -44 8 -55 -1 -85 -19 -67 -7 7 -12 15 -12 19
-2 22 -18 51 -26 47 -5 -4 -9 2 -9 12 -1 21 -33 63 -50 63 -8 0 -10 -30 -9
-99z m24 69 c3 -5 1 -10 -4 -10 -6 0 -11 5 -11 10 0 6 2 10 4 10 3 0 8 -4 11
-10z"/>
<path d="M888 388 c8 -8 17 -8 34 0 22 10 21 11 -11 11 -27 1 -32 -2 -23 -11z"/>
<path d="M1120 390 c-8 -5 -41 -10 -72 -10 -31 0 -58 -3 -60 -7 -2 -5 0 -44 3
-88 3 -44 6 -65 7 -46 2 31 4 33 32 29 17 -3 30 -1 30 4 0 4 0 11 0 15 0 4
-14 6 -30 5 -28 -3 -30 -1 -30 32 0 34 2 35 44 41 48 8 66 2 66 -21 0 -8 5
-14 10 -14 6 0 10 12 10 26 0 21 4 25 26 22 24 -3 25 -7 29 -67 2 -34 8 -68
15 -75 9 -8 11 -2 10 29 -6 91 -2 102 31 107 24 4 33 0 39 -16 8 -19 9 -18 9
7 1 26 -2 28 -36 26 -21 -1 -56 1 -78 5 -22 3 -47 2 -55 -4z"/>
<path d="M140 357 c0 -18 2 -19 10 -7 15 24 20 8 26 -88 6 -81 5 -92 -10 -92
-9 0 -16 -4 -16 -10 0 -5 21 -10 48 -9 26 0 40 3 32 6 -39 14 -55 83 -24 101
15 8 15 10 0 15 -11 4 -16 19 -16 47 l0 40 44 0 c31 0 46 -5 50 -16 7 -18 -8
-50 -30 -62 -12 -7 -10 -11 13 -20 24 -10 25 -10 11 1 -15 12 -15 14 3 25 23
15 25 55 3 72 -8 8 -44 14 -80 16 -60 2 -64 1 -64 -19z"/>
<path d="M335 320 c3 -5 16 -10 27 -10 20 0 20 -1 5 -18 -10 -10 -17 -32 -17
-47 0 -25 2 -27 14 -15 7 8 16 30 19 47 5 26 2 35 -13 43 -24 13 -43 13 -35 0z"/>
<path d="M466 271 c-4 -28 -12 -56 -19 -63 -13 -15 -20 -38 -11 -38 3 0 14 5
25 10 15 8 19 7 19 -5 0 -9 9 -15 25 -15 16 0 25 6 25 16 0 8 -5 12 -10 9 -13
-8 -40 12 -40 29 0 6 5 4 10 -4 7 -11 10 -2 11 33 1 26 2 53 3 59 1 7 -6 14
-15 16 -13 2 -18 -8 -23 -47z"/>
<path d="M555 310 c-6 -9 8 -14 28 -11 5 1 6 -2 3 -7 -3 -4 9 -36 25 -71 l30
-62 -21 -29 c-12 -18 -16 -31 -10 -35 5 -3 10 1 10 10 0 9 4 14 9 11 10 -7 25
22 22 42 -1 6 3 12 8 12 16 0 1 29 -18 35 -9 3 -17 13 -18 22 -3 41 -28 93
-45 93 -9 0 -20 -4 -23 -10z"/>
<path d="M703 313 c-7 -2 -13 -14 -13 -24 0 -11 -6 -32 -14 -48 -10 -19 -12
-31 -4 -42 8 -11 9 -11 5 3 -3 9 1 19 8 22 8 3 12 12 9 20 -3 7 5 23 17 35 13
12 17 21 10 21 -7 0 -9 5 -6 10 7 11 6 11 -12 3z"/>
<path d="M305 211 c0 -16 3 -27 8 -24 4 2 7 15 7 29 0 13 -3 24 -7 24 -5 0 -8
-13 -8 -29z"/>
<path d="M374 210 c3 -14 6 -28 6 -32 0 -5 4 -8 9 -8 13 0 5 40 -10 54 -9 8
-10 5 -5 -14z"/>
<path d="M1187 205 c-4 -11 -10 -26 -13 -33 -4 -9 4 -12 31 -10 34 2 35 3 17
18 -11 8 -22 22 -24 30 -3 11 -6 10 -11 -5z"/>
<path d="M990 192 c0 -5 -10 -14 -22 -20 -21 -9 -18 -11 20 -11 45 -1 50 3 28
25 -16 16 -26 18 -26 6z"/>
<path d="M270 170 c-9 -6 -10 -10 -3 -10 6 0 15 5 18 10 8 12 4 12 -15 0z"/>
<path d="M1145 170 c3 -5 8 -10 11 -10 2 0 4 5 4 10 0 6 -5 10 -11 10 -5 0 -7
-4 -4 -10z"/>
<path d="M562 114 c13 -29 23 -31 25 -5 1 11 -6 21 -17 24 -16 4 -17 2 -8 -19z"/>
</g>
</svg>
